# Blender 4.1.1
# www.blender.org
mtllib char3.mtl
o Band
v -0.032656 2.592892 1.522558
v -0.032656 2.607108 1.522558
v -0.032656 2.592892 0.220183
v -0.032656 2.607108 0.220183
v 0.032656 2.592892 1.522558
v 0.032656 2.607108 1.522558
v 0.032656 2.592892 0.220183
v 0.032656 2.607108 0.220183
v -0.032656 2.592892 0.249783
v -0.032656 2.592892 0.279382
v -0.032656 2.592892 0.308981
v -0.032656 2.592892 0.338581
v -0.032656 2.592892 0.368180
v -0.032656 2.592892 0.397780
v -0.032656 2.592892 0.427379
v -0.032656 2.592892 0.456979
v -0.032656 2.592892 0.486578
v -0.032656 2.592892 0.516177
v -0.032656 2.592892 0.545777
v -0.032656 2.592892 0.575376
v -0.032656 2.592892 0.604976
v -0.032656 2.592892 0.634575
v -0.032656 2.592892 0.664175
v -0.032656 2.592892 0.693774
v -0.032656 2.592892 0.723373
v -0.032656 2.592892 0.752973
v -0.032656 2.592892 0.782572
v -0.032656 2.592892 0.812172
v -0.032656 2.592892 0.841771
v -0.032656 2.592892 0.871371
v -0.032656 2.592892 0.900970
v -0.032656 2.592892 0.930569
v -0.032656 2.592892 0.960169
v -0.032656 2.592892 0.989768
v -0.032656 2.592892 1.019368
v -0.032656 2.592892 1.048967
v -0.032656 2.592892 1.078567
v -0.032656 2.592892 1.108166
v -0.032656 2.592892 1.137766
v -0.032656 2.592892 1.167365
v -0.032656 2.592892 1.196964
v -0.032656 2.592892 1.226564
v -0.032656 2.592892 1.256163
v -0.032656 2.592892 1.285763
v -0.032656 2.592892 1.315362
v -0.032656 2.592892 1.344962
v -0.032656 2.592892 1.374561
v -0.032656 2.592892 1.404160
v -0.032656 2.592892 1.433760
v -0.032656 2.592892 1.463359
v -0.032656 2.592892 1.492959
v -0.032656 2.607108 1.492959
v -0.032656 2.607108 1.463359
v -0.032656 2.607108 1.433760
v -0.032656 2.607108 1.404160
v -0.032656 2.607108 1.374561
v -0.032656 2.607108 1.344962
v -0.032656 2.607108 1.315362
v -0.032656 2.607108 1.285763
v -0.032656 2.607108 1.256163
v -0.032656 2.607108 1.226564
v -0.032656 2.607108 1.196965
v -0.032656 2.607108 1.167365
v -0.032656 2.607108 1.137766
v -0.032656 2.607108 1.108166
v -0.032656 2.607108 1.078567
v -0.032656 2.607108 1.048967
v -0.032656 2.607108 1.019368
v -0.032656 2.607108 0.989769
v -0.032656 2.607108 0.960169
v -0.032656 2.607108 0.930570
v -0.032656 2.607108 0.900970
v -0.032656 2.607108 0.871371
v -0.032656 2.607108 0.841771
v -0.032656 2.607108 0.812172
v -0.032656 2.607108 0.782573
v -0.032656 2.607108 0.752973
v -0.032656 2.607108 0.723374
v -0.032656 2.607108 0.693774
v -0.032656 2.607108 0.664175
v -0.032656 2.607108 0.634575
v -0.032656 2.607108 0.604976
v -0.032656 2.607108 0.575377
v -0.032656 2.607108 0.545777
v -0.032656 2.607108 0.516178
v -0.032656 2.607108 0.486578
v -0.032656 2.607108 0.456979
v -0.032656 2.607108 0.427379
v -0.032656 2.607108 0.397780
v -0.032656 2.607108 0.368180
v -0.032656 2.607108 0.338581
v -0.032656 2.607108 0.308981
v -0.032656 2.607108 0.279382
v -0.032656 2.607108 0.249783
v 0.032656 2.592892 1.492959
v 0.032656 2.592892 1.463359
v 0.032656 2.592892 1.433760
v 0.032656 2.592892 1.404160
v 0.032656 2.592892 1.374561
v 0.032656 2.592892 1.344962
v 0.032656 2.592892 1.315362
v 0.032656 2.592892 1.285763
v 0.032656 2.592892 1.256163
v 0.032656 2.592892 1.226564
v 0.032656 2.592892 1.196965
v 0.032656 2.592892 1.167365
v 0.032656 2.592892 1.137766
v 0.032656 2.592892 1.108166
v 0.032656 2.592892 1.078567
v 0.032656 2.592892 1.048967
v 0.032656 2.592892 1.019368
v 0.032656 2.592892 0.989769
v 0.032656 2.592892 0.960169
v 0.032656 2.592892 0.930570
v 0.032656 2.592892 0.900970
v 0.032656 2.592892 0.871371
v 0.032656 2.592892 0.841771
v 0.032656 2.592892 0.812172
v 0.032656 2.592892 0.782573
v 0.032656 2.592892 0.752973
v 0.032656 2.592892 0.723374
v 0.032656 2.592892 0.693774
v 0.032656 2.592892 0.664175
v 0.032656 2.592892 0.634575
v 0.032656 2.592892 0.604976
v 0.032656 2.592892 0.575377
v 0.032656 2.592892 0.545777
v 0.032656 2.592892 0.516178
v 0.032656 2.592892 0.486578
v 0.032656 2.592892 0.456979
v 0.032656 2.592892 0.427379
v 0.032656 2.592892 0.397780
v 0.032656 2.592892 0.368180
v 0.032656 2.592892 0.338581
v 0.032656 2.592892 0.308981
v 0.032656 2.592892 0.279382
v 0.032656 2.592892 0.249783
v 0.032656 2.607108 0.249783
v 0.032656 2.607108 0.279382
v 0.032656 2.607108 0.308981
v 0.032656 2.607108 0.338581
v 0.032656 2.607108 0.368180
v 0.032656 2.607108 0.397780
v 0.032656 2.607108 0.427379
v 0.032656 2.607108 0.456979
v 0.032656 2.607108 0.486578
v 0.032656 2.607108 0.516177
v 0.032656 2.607108 0.545777
v 0.032656 2.607108 0.575376
v 0.032656 2.607108 0.604976
v 0.032656 2.607108 0.634575
v 0.032656 2.607108 0.664175
v 0.032656 2.607108 0.693774
v 0.032656 2.607108 0.723373
v 0.032656 2.607108 0.752973
v 0.032656 2.607108 0.782572
v 0.032656 2.607108 0.812172
v 0.032656 2.607108 0.841771
v 0.032656 2.607108 0.871371
v 0.032656 2.607108 0.900970
v 0.032656 2.607108 0.930569
v 0.032656 2.607108 0.960169
v 0.032656 2.607108 0.989768
v 0.032656 2.607108 1.019368
v 0.032656 2.607108 1.048967
v 0.032656 2.607108 1.078567
v 0.032656 2.607108 1.108166
v 0.032656 2.607108 1.137766
v 0.032656 2.607108 1.167365
v 0.032656 2.607108 1.196964
v 0.032656 2.607108 1.226564
v 0.032656 2.607108 1.256163
v 0.032656 2.607108 1.285763
v 0.032656 2.607108 1.315362
v 0.032656 2.607108 1.344962
v 0.032656 2.607108 1.374561
v 0.032656 2.607108 1.404160
v 0.032656 2.607108 1.433760
v 0.032656 2.607108 1.463359
v 0.032656 2.607108 1.492959
vn -1.0000 -0.0000 -0.0000
vn -0.0000 -0.0000 -1.0000
vn 1.0000 -0.0000 -0.0000
vn -0.0000 -0.0000 1.0000
vn -0.0000 -1.0000 -0.0000
vn -0.0000 1.0000 -0.0000
vt 0.375000 0.244318
vt 0.625000 0.244318
vt 0.625000 0.250000
vt 0.375000 0.250000
vt 0.625000 0.500000
vt 0.375000 0.500000
vt 0.375000 0.744318
vt 0.625000 0.744318
vt 0.625000 0.750000
vt 0.375000 0.750000
vt 0.625000 1.000000
vt 0.375000 1.000000
vt 0.125000 0.744318
vt 0.125000 0.750000
vt 0.875000 0.744318
vt 0.875000 0.750000
vt 0.875000 0.500000
vt 0.875000 0.505682
vt 0.625000 0.505682
vt 0.875000 0.511364
vt 0.625000 0.511364
vt 0.875000 0.517045
vt 0.625000 0.517045
vt 0.875000 0.522727
vt 0.625000 0.522727
vt 0.875000 0.528409
vt 0.625000 0.528409
vt 0.875000 0.534091
vt 0.625000 0.534091
vt 0.875000 0.539773
vt 0.625000 0.539773
vt 0.875000 0.545455
vt 0.625000 0.545455
vt 0.875000 0.551136
vt 0.625000 0.551136
vt 0.875000 0.556818
vt 0.625000 0.556818
vt 0.875000 0.562500
vt 0.625000 0.562500
vt 0.875000 0.568182
vt 0.625000 0.568182
vt 0.875000 0.573864
vt 0.625000 0.573864
vt 0.875000 0.579545
vt 0.625000 0.579546
vt 0.875000 0.585227
vt 0.625000 0.585227
vt 0.875000 0.590909
vt 0.625000 0.590909
vt 0.875000 0.596591
vt 0.625000 0.596591
vt 0.875000 0.602273
vt 0.625000 0.602273
vt 0.875000 0.607954
vt 0.625000 0.607955
vt 0.875000 0.613636
vt 0.625000 0.613636
vt 0.875000 0.619318
vt 0.625000 0.619318
vt 0.875000 0.625000
vt 0.625000 0.625000
vt 0.875000 0.630682
vt 0.625000 0.630682
vt 0.875000 0.636364
vt 0.625000 0.636364
vt 0.875000 0.642045
vt 0.625000 0.642045
vt 0.875000 0.647727
vt 0.625000 0.647727
vt 0.875000 0.653409
vt 0.625000 0.653409
vt 0.875000 0.659091
vt 0.625000 0.659091
vt 0.875000 0.664773
vt 0.625000 0.664773
vt 0.875000 0.670455
vt 0.625000 0.670454
vt 0.875000 0.676136
vt 0.625000 0.676136
vt 0.875000 0.681818
vt 0.625000 0.681818
vt 0.875000 0.687500
vt 0.625000 0.687500
vt 0.875000 0.693182
vt 0.625000 0.693182
vt 0.875000 0.698864
vt 0.625000 0.698864
vt 0.875000 0.704545
vt 0.625000 0.704545
vt 0.875000 0.710227
vt 0.625000 0.710227
vt 0.875000 0.715909
vt 0.625000 0.715909
vt 0.875000 0.721591
vt 0.625000 0.721591
vt 0.875000 0.727273
vt 0.625000 0.727273
vt 0.875000 0.732955
vt 0.625000 0.732955
vt 0.875000 0.738636
vt 0.625000 0.738636
vt 0.125000 0.500000
vt 0.375000 0.505682
vt 0.125000 0.505682
vt 0.375000 0.511364
vt 0.125000 0.511364
vt 0.375000 0.517045
vt 0.125000 0.517045
vt 0.375000 0.522727
vt 0.125000 0.522727
vt 0.375000 0.528409
vt 0.125000 0.528409
vt 0.375000 0.534091
vt 0.125000 0.534091
vt 0.375000 0.539773
vt 0.125000 0.539773
vt 0.375000 0.545455
vt 0.125000 0.545455
vt 0.375000 0.551136
vt 0.125000 0.551136
vt 0.375000 0.556818
vt 0.125000 0.556818
vt 0.375000 0.562500
vt 0.125000 0.562500
vt 0.375000 0.568182
vt 0.125000 0.568182
vt 0.375000 0.573864
vt 0.125000 0.573864
vt 0.375000 0.579545
vt 0.125000 0.579545
vt 0.375000 0.585227
vt 0.125000 0.585227
vt 0.375000 0.590909
vt 0.125000 0.590909
vt 0.375000 0.596591
vt 0.125000 0.596591
vt 0.375000 0.602273
vt 0.125000 0.602273
vt 0.375000 0.607954
vt 0.125000 0.607955
vt 0.375000 0.613636
vt 0.125000 0.613636
vt 0.375000 0.619318
vt 0.125000 0.619318
vt 0.375000 0.625000
vt 0.125000 0.625000
vt 0.375000 0.630682
vt 0.125000 0.630682
vt 0.375000 0.636364
vt 0.125000 0.636364
vt 0.375000 0.642045
vt 0.125000 0.642045
vt 0.375000 0.647727
vt 0.125000 0.647727
vt 0.375000 0.653409
vt 0.125000 0.653409
vt 0.375000 0.659091
vt 0.125000 0.659091
vt 0.375000 0.664773
vt 0.125000 0.664773
vt 0.375000 0.670455
vt 0.125000 0.670455
vt 0.375000 0.676136
vt 0.125000 0.676136
vt 0.375000 0.681818
vt 0.125000 0.681818
vt 0.375000 0.687500
vt 0.125000 0.687500
vt 0.375000 0.693182
vt 0.125000 0.693182
vt 0.375000 0.698864
vt 0.125000 0.698864
vt 0.375000 0.704545
vt 0.125000 0.704545
vt 0.375000 0.710227
vt 0.125000 0.710227
vt 0.375000 0.715909
vt 0.125000 0.715909
vt 0.375000 0.721591
vt 0.125000 0.721591
vt 0.375000 0.727273
vt 0.125000 0.727273
vt 0.375000 0.732955
vt 0.125000 0.732955
vt 0.375000 0.738636
vt 0.125000 0.738636
vt 0.375000 0.000000
vt 0.625000 0.000000
vt 0.625000 0.005682
vt 0.375000 0.005682
vt 0.625000 0.011364
vt 0.375000 0.011364
vt 0.625000 0.017045
vt 0.375000 0.017045
vt 0.625000 0.022727
vt 0.375000 0.022727
vt 0.625000 0.028409
vt 0.375000 0.028409
vt 0.625000 0.034091
vt 0.375000 0.034091
vt 0.625000 0.039773
vt 0.375000 0.039773
vt 0.625000 0.045455
vt 0.375000 0.045455
vt 0.625000 0.051136
vt 0.375000 0.051136
vt 0.625000 0.056818
vt 0.375000 0.056818
vt 0.625000 0.062500
vt 0.375000 0.062500
vt 0.625000 0.068182
vt 0.375000 0.068182
vt 0.625000 0.073864
vt 0.375000 0.073864
vt 0.625000 0.079545
vt 0.375000 0.079545
vt 0.625000 0.085227
vt 0.375000 0.085227
vt 0.625000 0.090909
vt 0.375000 0.090909
vt 0.625000 0.096591
vt 0.375000 0.096591
vt 0.625000 0.102273
vt 0.375000 0.102273
vt 0.625000 0.107955
vt 0.375000 0.107955
vt 0.625000 0.113636
vt 0.375000 0.113636
vt 0.625000 0.119318
vt 0.375000 0.119318
vt 0.625000 0.125000
vt 0.375000 0.125000
vt 0.625000 0.130682
vt 0.375000 0.130682
vt 0.625000 0.136364
vt 0.375000 0.136364
vt 0.625000 0.142045
vt 0.375000 0.142045
vt 0.625000 0.147727
vt 0.375000 0.147727
vt 0.625000 0.153409
vt 0.375000 0.153409
vt 0.625000 0.159091
vt 0.375000 0.159091
vt 0.625000 0.164773
vt 0.375000 0.164773
vt 0.625000 0.170455
vt 0.375000 0.170455
vt 0.625000 0.176136
vt 0.375000 0.176136
vt 0.625000 0.181818
vt 0.375000 0.181818
vt 0.625000 0.187500
vt 0.375000 0.187500
vt 0.625000 0.193182
vt 0.375000 0.193182
vt 0.625000 0.198864
vt 0.375000 0.198864
vt 0.625000 0.204545
vt 0.375000 0.204545
vt 0.625000 0.210227
vt 0.375000 0.210227
vt 0.625000 0.215909
vt 0.375000 0.215909
vt 0.625000 0.221591
vt 0.375000 0.221591
vt 0.625000 0.227273
vt 0.375000 0.227273
vt 0.625000 0.232955
vt 0.375000 0.232955
vt 0.625000 0.238636
vt 0.375000 0.238636
s 0
f 9/1/1 94/2/1 4/3/1 3/4/1
f 3/4/2 4/3/2 8/5/2 7/6/2
f 95/7/3 180/8/3 6/9/3 5/10/3
f 5/10/4 6/9/4 2/11/4 1/12/4
f 51/13/5 95/7/5 5/10/5 1/14/5
f 180/8/6 52/15/6 2/16/6 6/9/6
f 8/5/6 4/17/6 94/18/6 138/19/6
f 138/19/6 94/18/6 93/20/6 139/21/6
f 139/21/6 93/20/6 92/22/6 140/23/6
f 140/23/6 92/22/6 91/24/6 141/25/6
f 141/25/6 91/24/6 90/26/6 142/27/6
f 142/27/6 90/26/6 89/28/6 143/29/6
f 143/29/6 89/28/6 88/30/6 144/31/6
f 144/31/6 88/30/6 87/32/6 145/33/6
f 145/33/6 87/32/6 86/34/6 146/35/6
f 146/35/6 86/34/6 85/36/6 147/37/6
f 147/37/6 85/36/6 84/38/6 148/39/6
f 148/39/6 84/38/6 83/40/6 149/41/6
f 149/41/6 83/40/6 82/42/6 150/43/6
f 150/43/6 82/42/6 81/44/6 151/45/6
f 151/45/6 81/44/6 80/46/6 152/47/6
f 152/47/6 80/46/6 79/48/6 153/49/6
f 153/49/6 79/48/6 78/50/6 154/51/6
f 154/51/6 78/50/6 77/52/6 155/53/6
f 155/53/6 77/52/6 76/54/6 156/55/6
f 156/55/6 76/54/6 75/56/6 157/57/6
f 157/57/6 75/56/6 74/58/6 158/59/6
f 158/59/6 74/58/6 73/60/6 159/61/6
f 159/61/6 73/60/6 72/62/6 160/63/6
f 160/63/6 72/62/6 71/64/6 161/65/6
f 161/65/6 71/64/6 70/66/6 162/67/6
f 162/67/6 70/66/6 69/68/6 163/69/6
f 163/69/6 69/68/6 68/70/6 164/71/6
f 164/71/6 68/70/6 67/72/6 165/73/6
f 165/73/6 67/72/6 66/74/6 166/75/6
f 166/75/6 66/74/6 65/76/6 167/77/6
f 167/77/6 65/76/6 64/78/6 168/79/6
f 168/79/6 64/78/6 63/80/6 169/81/6
f 169/81/6 63/80/6 62/82/6 170/83/6
f 170/83/6 62/82/6 61/84/6 171/85/6
f 171/85/6 61/84/6 60/86/6 172/87/6
f 172/87/6 60/86/6 59/88/6 173/89/6
f 173/89/6 59/88/6 58/90/6 174/91/6
f 174/91/6 58/90/6 57/92/6 175/93/6
f 175/93/6 57/92/6 56/94/6 176/95/6
f 176/95/6 56/94/6 55/96/6 177/97/6
f 177/97/6 55/96/6 54/98/6 178/99/6
f 178/99/6 54/98/6 53/100/6 179/101/6
f 179/101/6 53/100/6 52/15/6 180/8/6
f 3/102/5 7/6/5 137/103/5 9/104/5
f 9/104/5 137/103/5 136/105/5 10/106/5
f 10/106/5 136/105/5 135/107/5 11/108/5
f 11/108/5 135/107/5 134/109/5 12/110/5
f 12/110/5 134/109/5 133/111/5 13/112/5
f 13/112/5 133/111/5 132/113/5 14/114/5
f 14/114/5 132/113/5 131/115/5 15/116/5
f 15/116/5 131/115/5 130/117/5 16/118/5
f 16/118/5 130/117/5 129/119/5 17/120/5
f 17/120/5 129/119/5 128/121/5 18/122/5
f 18/122/5 128/121/5 127/123/5 19/124/5
f 19/124/5 127/123/5 126/125/5 20/126/5
f 20/126/5 126/125/5 125/127/5 21/128/5
f 21/128/5 125/127/5 124/129/5 22/130/5
f 22/130/5 124/129/5 123/131/5 23/132/5
f 23/132/5 123/131/5 122/133/5 24/134/5
f 24/134/5 122/133/5 121/135/5 25/136/5
f 25/136/5 121/135/5 120/137/5 26/138/5
f 26/138/5 120/137/5 119/139/5 27/140/5
f 27/140/5 119/139/5 118/141/5 28/142/5
f 28/142/5 118/141/5 117/143/5 29/144/5
f 29/144/5 117/143/5 116/145/5 30/146/5
f 30/146/5 116/145/5 115/147/5 31/148/5
f 31/148/5 115/147/5 114/149/5 32/150/5
f 32/150/5 114/149/5 113/151/5 33/152/5
f 33/152/5 113/151/5 112/153/5 34/154/5
f 34/154/5 112/153/5 111/155/5 35/156/5
f 35/156/5 111/155/5 110/157/5 36/158/5
f 36/158/5 110/157/5 109/159/5 37/160/5
f 37/160/5 109/159/5 108/161/5 38/162/5
f 38/162/5 108/161/5 107/163/5 39/164/5
f 39/164/5 107/163/5 106/165/5 40/166/5
f 40/166/5 106/165/5 105/167/5 41/168/5
f 41/168/5 105/167/5 104/169/5 42/170/5
f 42/170/5 104/169/5 103/171/5 43/172/5
f 43/172/5 103/171/5 102/173/5 44/174/5
f 44/174/5 102/173/5 101/175/5 45/176/5
f 45/176/5 101/175/5 100/177/5 46/178/5
f 46/178/5 100/177/5 99/179/5 47/180/5
f 47/180/5 99/179/5 98/181/5 48/182/5
f 48/182/5 98/181/5 97/183/5 49/184/5
f 49/184/5 97/183/5 96/185/5 50/186/5
f 50/186/5 96/185/5 95/7/5 51/13/5
f 7/6/3 8/5/3 138/19/3 137/103/3
f 137/103/3 138/19/3 139/21/3 136/105/3
f 136/105/3 139/21/3 140/23/3 135/107/3
f 135/107/3 140/23/3 141/25/3 134/109/3
f 134/109/3 141/25/3 142/27/3 133/111/3
f 133/111/3 142/27/3 143/29/3 132/113/3
f 132/113/3 143/29/3 144/31/3 131/115/3
f 131/115/3 144/31/3 145/33/3 130/117/3
f 130/117/3 145/33/3 146/35/3 129/119/3
f 129/119/3 146/35/3 147/37/3 128/121/3
f 128/121/3 147/37/3 148/39/3 127/123/3
f 127/123/3 148/39/3 149/41/3 126/125/3
f 126/125/3 149/41/3 150/43/3 125/127/3
f 125/127/3 150/43/3 151/45/3 124/129/3
f 124/129/3 151/45/3 152/47/3 123/131/3
f 123/131/3 152/47/3 153/49/3 122/133/3
f 122/133/3 153/49/3 154/51/3 121/135/3
f 121/135/3 154/51/3 155/53/3 120/137/3
f 120/137/3 155/53/3 156/55/3 119/139/3
f 119/139/3 156/55/3 157/57/3 118/141/3
f 118/141/3 157/57/3 158/59/3 117/143/3
f 117/143/3 158/59/3 159/61/3 116/145/3
f 116/145/3 159/61/3 160/63/3 115/147/3
f 115/147/3 160/63/3 161/65/3 114/149/3
f 114/149/3 161/65/3 162/67/3 113/151/3
f 113/151/3 162/67/3 163/69/3 112/153/3
f 112/153/3 163/69/3 164/71/3 111/155/3
f 111/155/3 164/71/3 165/73/3 110/157/3
f 110/157/3 165/73/3 166/75/3 109/159/3
f 109/159/3 166/75/3 167/77/3 108/161/3
f 108/161/3 167/77/3 168/79/3 107/163/3
f 107/163/3 168/79/3 169/81/3 106/165/3
f 106/165/3 169/81/3 170/83/3 105/167/3
f 105/167/3 170/83/3 171/85/3 104/169/3
f 104/169/3 171/85/3 172/87/3 103/171/3
f 103/171/3 172/87/3 173/89/3 102/173/3
f 102/173/3 173/89/3 174/91/3 101/175/3
f 101/175/3 174/91/3 175/93/3 100/177/3
f 100/177/3 175/93/3 176/95/3 99/179/3
f 99/179/3 176/95/3 177/97/3 98/181/3
f 98/181/3 177/97/3 178/99/3 97/183/3
f 97/183/3 178/99/3 179/101/3 96/185/3
f 96/185/3 179/101/3 180/8/3 95/7/3
f 1/187/1 2/188/1 52/189/1 51/190/1
f 51/190/1 52/189/1 53/191/1 50/192/1
f 50/192/1 53/191/1 54/193/1 49/194/1
f 49/194/1 54/193/1 55/195/1 48/196/1
f 48/196/1 55/195/1 56/197/1 47/198/1
f 47/198/1 56/197/1 57/199/1 46/200/1
f 46/200/1 57/199/1 58/201/1 45/202/1
f 45/202/1 58/201/1 59/203/1 44/204/1
f 44/204/1 59/203/1 60/205/1 43/206/1
f 43/206/1 60/205/1 61/207/1 42/208/1
f 42/208/1 61/207/1 62/209/1 41/210/1
f 41/210/1 62/209/1 63/211/1 40/212/1
f 40/212/1 63/211/1 64/213/1 39/214/1
f 39/214/1 64/213/1 65/215/1 38/216/1
f 38/216/1 65/215/1 66/217/1 37/218/1
f 37/218/1 66/217/1 67/219/1 36/220/1
f 36/220/1 67/219/1 68/221/1 35/222/1
f 35/222/1 68/221/1 69/223/1 34/224/1
f 34/224/1 69/223/1 70/225/1 33/226/1
f 33/226/1 70/225/1 71/227/1 32/228/1
f 32/228/1 71/227/1 72/229/1 31/230/1
f 31/230/1 72/229/1 73/231/1 30/232/1
f 30/232/1 73/231/1 74/233/1 29/234/1
f 29/234/1 74/233/1 75/235/1 28/236/1
f 28/236/1 75/235/1 76/237/1 27/238/1
f 27/238/1 76/237/1 77/239/1 26/240/1
f 26/240/1 77/239/1 78/241/1 25/242/1
f 25/242/1 78/241/1 79/243/1 24/244/1
f 24/244/1 79/243/1 80/245/1 23/246/1
f 23/246/1 80/245/1 81/247/1 22/248/1
f 22/248/1 81/247/1 82/249/1 21/250/1
f 21/250/1 82/249/1 83/251/1 20/252/1
f 20/252/1 83/251/1 84/253/1 19/254/1
f 19/254/1 84/253/1 85/255/1 18/256/1
f 18/256/1 85/255/1 86/257/1 17/258/1
f 17/258/1 86/257/1 87/259/1 16/260/1
f 16/260/1 87/259/1 88/261/1 15/262/1
f 15/262/1 88/261/1 89/263/1 14/264/1
f 14/264/1 89/263/1 90/265/1 13/266/1
f 13/266/1 90/265/1 91/267/1 12/268/1
f 12/268/1 91/267/1 92/269/1 11/270/1
f 11/270/1 92/269/1 93/271/1 10/272/1
f 10/272/1 93/271/1 94/2/1 9/1/1
