# Blender 4.1.1
# www.blender.org
mtllib halfcape.mtl
o Cape
v -0.223544 0.905010 -0.016661
v -0.126812 2.127406 -0.008395
v -0.195852 0.905010 -0.014295
v -0.104289 2.111235 -0.006470
v -0.223544 2.032781 -0.016661
v -0.223544 1.946029 -0.016661
v -0.223544 1.859278 -0.016661
v -0.223544 1.772526 -0.016661
v -0.223544 1.685775 -0.016661
v -0.223544 1.599023 -0.016661
v -0.223544 1.512271 -0.016661
v -0.223544 1.425520 -0.016661
v -0.223544 1.338768 -0.016661
v -0.223544 1.252017 -0.016661
v -0.223544 1.165265 -0.016661
v -0.223544 1.078514 -0.016661
v -0.223544 0.991762 -0.016661
v -0.195852 2.032781 -0.014295
v -0.195852 1.946029 -0.014295
v -0.195852 1.859278 -0.014295
v -0.195852 1.772526 -0.014295
v -0.195852 1.685775 -0.014295
v -0.195852 1.599023 -0.014295
v -0.195852 1.512271 -0.014295
v -0.195852 1.425520 -0.014295
v -0.195852 1.338768 -0.014295
v -0.195852 1.252017 -0.014295
v -0.195852 1.165265 -0.014295
v -0.195852 1.078514 -0.014295
v -0.195852 0.991762 -0.014295
v -0.205183 0.723695 -0.208130
v -0.130246 2.096188 -0.201726
v -0.179037 0.723695 -0.205896
v -0.108981 2.080920 -0.199909
v -0.218954 0.859682 -0.064528
v -0.214364 0.814353 -0.112396
v -0.209773 0.769024 -0.160263
v -0.129387 2.103992 -0.153393
v -0.128529 2.111797 -0.105061
v -0.127671 2.119601 -0.056728
v -0.183241 0.769024 -0.157995
v -0.187444 0.814353 -0.110095
v -0.191648 0.859682 -0.062195
v -0.105462 2.103657 -0.054830
v -0.106635 2.096078 -0.103190
v -0.107808 2.088499 -0.151549
v -0.205183 0.820758 -0.208130
v -0.205183 0.917821 -0.208130
v -0.205183 1.014883 -0.208130
v -0.205183 1.111946 -0.208130
v -0.205183 1.209009 -0.208130
v -0.205183 1.306072 -0.208130
v -0.205183 1.403135 -0.208130
v -0.205183 1.500198 -0.208130
v -0.205183 1.597260 -0.208130
v -0.205183 1.694323 -0.208130
v -0.205183 1.791386 -0.208130
v -0.205183 1.888449 -0.208130
v -0.205183 1.985512 -0.208130
v -0.179037 1.985512 -0.205896
v -0.179037 1.888449 -0.205896
v -0.179037 1.791386 -0.205896
v -0.179037 1.694323 -0.205896
v -0.179037 1.597260 -0.205896
v -0.179037 1.500197 -0.205896
v -0.179037 1.403135 -0.205896
v -0.179037 1.306072 -0.205896
v -0.179037 1.209009 -0.205896
v -0.179037 1.111946 -0.205896
v -0.179037 1.014883 -0.205896
v -0.179037 0.917821 -0.205896
v -0.179037 0.820758 -0.205896
v -0.191648 2.020963 -0.062195
v -0.191648 1.931634 -0.062195
v -0.191648 1.842305 -0.062195
v -0.191648 1.752975 -0.062195
v -0.191648 1.663646 -0.062195
v -0.191648 1.574317 -0.062195
v -0.191648 1.484987 -0.062195
v -0.191648 1.395658 -0.062195
v -0.191648 1.306329 -0.062195
v -0.191648 1.216999 -0.062195
v -0.191648 1.127670 -0.062195
v -0.191648 1.038340 -0.062195
v -0.191648 0.949011 -0.062195
v -0.187444 2.009146 -0.110095
v -0.187444 1.917239 -0.110095
v -0.187444 1.825332 -0.110095
v -0.187444 1.733425 -0.110095
v -0.187444 1.641518 -0.110095
v -0.187444 1.549610 -0.110095
v -0.187444 1.457703 -0.110095
v -0.187444 1.365796 -0.110095
v -0.187444 1.273889 -0.110095
v -0.187444 1.181982 -0.110095
v -0.187444 1.090074 -0.110095
v -0.187444 0.998167 -0.110095
v -0.187444 0.906260 -0.110095
v -0.183241 1.997329 -0.157995
v -0.183241 1.902844 -0.157995
v -0.183241 1.808359 -0.157995
v -0.183241 1.713874 -0.157995
v -0.183241 1.619389 -0.157995
v -0.183241 1.524904 -0.157995
v -0.183241 1.430419 -0.157995
v -0.183241 1.335934 -0.157995
v -0.183241 1.241449 -0.157995
v -0.183241 1.146964 -0.157995
v -0.183241 1.052479 -0.157995
v -0.183241 0.957994 -0.157995
v -0.183241 0.863509 -0.157995
v -0.209773 1.997329 -0.160263
v -0.209773 1.902844 -0.160263
v -0.209773 1.808359 -0.160263
v -0.209773 1.713874 -0.160263
v -0.209773 1.619389 -0.160263
v -0.209773 1.524904 -0.160263
v -0.209773 1.430419 -0.160263
v -0.209773 1.335934 -0.160263
v -0.209773 1.241449 -0.160263
v -0.209773 1.146964 -0.160263
v -0.209773 1.052479 -0.160263
v -0.209773 0.957994 -0.160263
v -0.209773 0.863509 -0.160263
v -0.214364 2.009146 -0.112396
v -0.214364 1.917239 -0.112396
v -0.214364 1.825332 -0.112396
v -0.214364 1.733425 -0.112396
v -0.214364 1.641518 -0.112396
v -0.214364 1.549610 -0.112396
v -0.214364 1.457703 -0.112396
v -0.214364 1.365796 -0.112396
v -0.214364 1.273889 -0.112396
v -0.214364 1.181982 -0.112396
v -0.214364 1.090074 -0.112396
v -0.214364 0.998167 -0.112396
v -0.214364 0.906260 -0.112396
v -0.218954 2.020963 -0.064528
v -0.218954 1.931634 -0.064528
v -0.218954 1.842305 -0.064528
v -0.218954 1.752975 -0.064528
v -0.218954 1.663646 -0.064528
v -0.218954 1.574317 -0.064528
v -0.218954 1.484987 -0.064528
v -0.218954 1.395658 -0.064528
v -0.218954 1.306329 -0.064528
v -0.218954 1.216999 -0.064528
v -0.218954 1.127670 -0.064528
v -0.218954 1.038340 -0.064528
v -0.218954 0.949011 -0.064528
vn -0.0851 -0.0000 0.9964
vn -0.6994 0.6945 -0.1688
vn 0.7751 -0.6143 0.1482
vn 0.0851 -0.0000 -0.9964
vn -0.0584 -0.7276 0.6835
vn 0.5853 0.7987 -0.1394
vn 0.6540 -0.7373 0.1692
vn 0.6962 -0.6991 0.1628
vn 0.7367 -0.6580 0.1558
vn -0.8001 0.5809 -0.1495
vn -0.7683 0.6207 -0.1564
vn -0.7346 0.6587 -0.1628
vn -0.9954 -0.0000 -0.0955
vn 0.9962 -0.0000 0.0874
vt 0.607143 0.250000
vt 0.607143 0.500000
vt 0.625000 0.500000
vt 0.625000 0.250000
vt 0.375000 0.250000
vt 0.375000 0.500000
vt 0.392857 0.500000
vt 0.392857 0.250000
vt 0.410714 0.500000
vt 0.410714 0.250000
vt 0.428571 0.500000
vt 0.428571 0.250000
vt 0.446429 0.500000
vt 0.446429 0.250000
vt 0.464286 0.500000
vt 0.464286 0.250000
vt 0.482143 0.500000
vt 0.482143 0.250000
vt 0.500000 0.500000
vt 0.500000 0.250000
vt 0.517857 0.500000
vt 0.517857 0.250000
vt 0.535714 0.500000
vt 0.535714 0.250000
vt 0.553571 0.500000
vt 0.553571 0.250000
vt 0.571429 0.500000
vt 0.571429 0.250000
vt 0.589286 0.500000
vt 0.589286 0.250000
vt 0.607143 0.187500
vt 0.625000 0.187500
vt 0.607143 0.687500
vt 0.607143 0.750000
vt 0.625000 0.750000
vt 0.625000 0.687500
vt 0.607143 1.000000
vt 0.625000 1.000000
vt 0.125000 0.687500
vt 0.125000 0.750000
vt 0.375000 0.750000
vt 0.375000 0.687500
vt 0.875000 0.750000
vt 0.875000 0.687500
vt 0.625000 0.562500
vt 0.875000 0.562500
vt 0.875000 0.500000
vt 0.625000 0.625000
vt 0.875000 0.625000
vt 0.125000 0.500000
vt 0.125000 0.562500
vt 0.375000 0.562500
vt 0.125000 0.625000
vt 0.375000 0.625000
vt 0.607143 0.562500
vt 0.607143 0.625000
vt 0.607143 0.000000
vt 0.607143 0.062500
vt 0.625000 0.062500
vt 0.625000 0.000000
vt 0.607143 0.125000
vt 0.625000 0.125000
vt 0.375000 0.125000
vt 0.375000 0.187500
vt 0.392857 0.187500
vt 0.392857 0.125000
vt 0.410714 0.187500
vt 0.410714 0.125000
vt 0.428571 0.187500
vt 0.428571 0.125000
vt 0.446429 0.187500
vt 0.446429 0.125000
vt 0.464286 0.187500
vt 0.464286 0.125000
vt 0.482143 0.187500
vt 0.482143 0.125000
vt 0.500000 0.187500
vt 0.500000 0.125000
vt 0.517857 0.187500
vt 0.517857 0.125000
vt 0.535714 0.187500
vt 0.535714 0.125000
vt 0.553571 0.187500
vt 0.553571 0.125000
vt 0.571429 0.187500
vt 0.571429 0.125000
vt 0.589286 0.187500
vt 0.589286 0.125000
vt 0.375000 0.062500
vt 0.392857 0.062500
vt 0.410714 0.062500
vt 0.428572 0.062500
vt 0.446429 0.062500
vt 0.464286 0.062500
vt 0.482143 0.062500
vt 0.500000 0.062500
vt 0.517857 0.062500
vt 0.535714 0.062500
vt 0.553572 0.062500
vt 0.571429 0.062500
vt 0.589286 0.062500
vt 0.375000 0.000000
vt 0.392857 0.000000
vt 0.410714 0.000000
vt 0.428571 0.000000
vt 0.446429 0.000000
vt 0.464286 0.000000
vt 0.482143 0.000000
vt 0.500000 0.000000
vt 0.517857 0.000000
vt 0.535714 0.000000
vt 0.553571 0.000000
vt 0.571429 0.000000
vt 0.589286 0.000000
vt 0.392857 0.687500
vt 0.392857 0.625000
vt 0.410714 0.687500
vt 0.410714 0.625000
vt 0.428571 0.687500
vt 0.428571 0.625000
vt 0.446429 0.687500
vt 0.446429 0.625000
vt 0.464286 0.687500
vt 0.464286 0.625000
vt 0.482143 0.687500
vt 0.482143 0.625000
vt 0.500000 0.687500
vt 0.500000 0.625000
vt 0.517857 0.687500
vt 0.517857 0.625000
vt 0.535714 0.687500
vt 0.535714 0.625000
vt 0.553572 0.687500
vt 0.553571 0.625000
vt 0.571429 0.687500
vt 0.571429 0.625000
vt 0.589286 0.687500
vt 0.589286 0.625000
vt 0.392857 0.562500
vt 0.410714 0.562500
vt 0.428571 0.562500
vt 0.446429 0.562500
vt 0.464286 0.562500
vt 0.482143 0.562500
vt 0.500000 0.562500
vt 0.517857 0.562500
vt 0.535714 0.562500
vt 0.553571 0.562500
vt 0.571429 0.562500
vt 0.589286 0.562500
vt 0.375000 1.000000
vt 0.392857 1.000000
vt 0.392857 0.750000
vt 0.410714 1.000000
vt 0.410714 0.750000
vt 0.428571 1.000000
vt 0.428571 0.750000
vt 0.446429 1.000000
vt 0.446429 0.750000
vt 0.464286 1.000000
vt 0.464286 0.750000
vt 0.482143 1.000000
vt 0.482143 0.750000
vt 0.500000 1.000000
vt 0.500000 0.750000
vt 0.517857 1.000000
vt 0.517857 0.750000
vt 0.535714 1.000000
vt 0.535714 0.750000
vt 0.553571 1.000000
vt 0.553571 0.750000
vt 0.571429 1.000000
vt 0.571429 0.750000
vt 0.589286 1.000000
vt 0.589286 0.750000
s 0
f 5/1/1 18/2/1 4/3/1 2/4/1
f 1/5/1 3/6/1 30/7/1 17/8/1
f 17/8/1 30/7/1 29/9/1 16/10/1
f 16/10/1 29/9/1 28/11/1 15/12/1
f 15/12/1 28/11/1 27/13/1 14/14/1
f 14/14/1 27/13/1 26/15/1 13/16/1
f 13/16/1 26/15/1 25/17/1 12/18/1
f 12/18/1 25/17/1 24/19/1 11/20/1
f 11/20/1 24/19/1 23/21/1 10/22/1
f 10/22/1 23/21/1 22/23/1 9/24/1
f 9/24/1 22/23/1 21/25/1 8/26/1
f 8/26/1 21/25/1 20/27/1 7/28/1
f 7/28/1 20/27/1 19/29/1 6/30/1
f 6/30/1 19/29/1 18/2/1 5/1/1
f 138/31/2 5/1/2 2/4/2 40/32/2
f 99/33/3 60/34/3 34/35/3 46/36/3
f 60/34/4 59/37/4 32/38/4 34/35/4
f 37/39/5 31/40/5 33/41/5 41/42/5
f 46/36/6 34/35/6 32/43/6 38/44/6
f 4/3/6 44/45/6 40/46/6 2/47/6
f 44/45/6 45/48/6 39/49/6 40/46/6
f 45/48/6 46/36/6 38/44/6 39/49/6
f 1/50/5 35/51/5 43/52/5 3/6/5
f 35/51/5 36/53/5 42/54/5 43/52/5
f 36/53/5 37/39/5 41/42/5 42/54/5
f 18/2/7 73/55/7 44/45/7 4/3/7
f 73/55/8 86/56/8 45/48/8 44/45/8
f 86/56/9 99/33/9 46/36/9 45/48/9
f 59/57/10 112/58/10 38/59/10 32/60/10
f 112/58/11 125/61/11 39/62/11 38/59/11
f 125/61/12 138/31/12 40/32/12 39/62/12
f 36/63/13 35/64/13 150/65/13 137/66/13
f 137/66/13 150/65/13 149/67/13 136/68/13
f 136/68/13 149/67/13 148/69/13 135/70/13
f 135/70/13 148/69/13 147/71/13 134/72/13
f 134/72/13 147/71/13 146/73/13 133/74/13
f 133/74/13 146/73/13 145/75/13 132/76/13
f 132/76/13 145/75/13 144/77/13 131/78/13
f 131/78/13 144/77/13 143/79/13 130/80/13
f 130/80/13 143/79/13 142/81/13 129/82/13
f 129/82/13 142/81/13 141/83/13 128/84/13
f 128/84/13 141/83/13 140/85/13 127/86/13
f 127/86/13 140/85/13 139/87/13 126/88/13
f 126/88/13 139/87/13 138/31/13 125/61/13
f 37/89/13 36/63/13 137/66/13 124/90/13
f 124/90/13 137/66/13 136/68/13 123/91/13
f 123/91/13 136/68/13 135/70/13 122/92/13
f 122/92/13 135/70/13 134/72/13 121/93/13
f 121/93/13 134/72/13 133/74/13 120/94/13
f 120/94/13 133/74/13 132/76/13 119/95/13
f 119/95/13 132/76/13 131/78/13 118/96/13
f 118/96/13 131/78/13 130/80/13 117/97/13
f 117/97/13 130/80/13 129/82/13 116/98/13
f 116/98/13 129/82/13 128/84/13 115/99/13
f 115/99/13 128/84/13 127/86/13 114/100/13
f 114/100/13 127/86/13 126/88/13 113/101/13
f 113/101/13 126/88/13 125/61/13 112/58/13
f 31/102/13 37/89/13 124/90/13 47/103/13
f 47/103/13 124/90/13 123/91/13 48/104/13
f 48/104/13 123/91/13 122/92/13 49/105/13
f 49/105/13 122/92/13 121/93/13 50/106/13
f 50/106/13 121/93/13 120/94/13 51/107/13
f 51/107/13 120/94/13 119/95/13 52/108/13
f 52/108/13 119/95/13 118/96/13 53/109/13
f 53/109/13 118/96/13 117/97/13 54/110/13
f 54/110/13 117/97/13 116/98/13 55/111/13
f 55/111/13 116/98/13 115/99/13 56/112/13
f 56/112/13 115/99/13 114/100/13 57/113/13
f 57/113/13 114/100/13 113/101/13 58/114/13
f 58/114/13 113/101/13 112/58/13 59/57/13
f 42/54/14 41/42/14 111/115/14 98/116/14
f 98/116/14 111/115/14 110/117/14 97/118/14
f 97/118/14 110/117/14 109/119/14 96/120/14
f 96/120/14 109/119/14 108/121/14 95/122/14
f 95/122/14 108/121/14 107/123/14 94/124/14
f 94/124/14 107/123/14 106/125/14 93/126/14
f 93/126/14 106/125/14 105/127/14 92/128/14
f 92/128/14 105/127/14 104/129/14 91/130/14
f 91/130/14 104/129/14 103/131/14 90/132/14
f 90/132/14 103/131/14 102/133/14 89/134/14
f 89/134/14 102/133/14 101/135/14 88/136/14
f 88/136/14 101/135/14 100/137/14 87/138/14
f 87/138/14 100/137/14 99/33/14 86/56/14
f 43/52/14 42/54/14 98/116/14 85/139/14
f 85/139/14 98/116/14 97/118/14 84/140/14
f 84/140/14 97/118/14 96/120/14 83/141/14
f 83/141/14 96/120/14 95/122/14 82/142/14
f 82/142/14 95/122/14 94/124/14 81/143/14
f 81/143/14 94/124/14 93/126/14 80/144/14
f 80/144/14 93/126/14 92/128/14 79/145/14
f 79/145/14 92/128/14 91/130/14 78/146/14
f 78/146/14 91/130/14 90/132/14 77/147/14
f 77/147/14 90/132/14 89/134/14 76/148/14
f 76/148/14 89/134/14 88/136/14 75/149/14
f 75/149/14 88/136/14 87/138/14 74/150/14
f 74/150/14 87/138/14 86/56/14 73/55/14
f 3/6/14 43/52/14 85/139/14 30/7/14
f 30/7/14 85/139/14 84/140/14 29/9/14
f 29/9/14 84/140/14 83/141/14 28/11/14
f 28/11/14 83/141/14 82/142/14 27/13/14
f 27/13/14 82/142/14 81/143/14 26/15/14
f 26/15/14 81/143/14 80/144/14 25/17/14
f 25/17/14 80/144/14 79/145/14 24/19/14
f 24/19/14 79/145/14 78/146/14 23/21/14
f 23/21/14 78/146/14 77/147/14 22/23/14
f 22/23/14 77/147/14 76/148/14 21/25/14
f 21/25/14 76/148/14 75/149/14 20/27/14
f 20/27/14 75/149/14 74/150/14 19/29/14
f 19/29/14 74/150/14 73/55/14 18/2/14
f 33/41/4 31/151/4 47/152/4 72/153/4
f 72/153/4 47/152/4 48/154/4 71/155/4
f 71/155/4 48/154/4 49/156/4 70/157/4
f 70/157/4 49/156/4 50/158/4 69/159/4
f 69/159/4 50/158/4 51/160/4 68/161/4
f 68/161/4 51/160/4 52/162/4 67/163/4
f 67/163/4 52/162/4 53/164/4 66/165/4
f 66/165/4 53/164/4 54/166/4 65/167/4
f 65/167/4 54/166/4 55/168/4 64/169/4
f 64/169/4 55/168/4 56/170/4 63/171/4
f 63/171/4 56/170/4 57/172/4 62/173/4
f 62/173/4 57/172/4 58/174/4 61/175/4
f 61/175/4 58/174/4 59/37/4 60/34/4
f 41/42/14 33/41/14 72/153/14 111/115/14
f 111/115/14 72/153/14 71/155/14 110/117/14
f 110/117/14 71/155/14 70/157/14 109/119/14
f 109/119/14 70/157/14 69/159/14 108/121/14
f 108/121/14 69/159/14 68/161/14 107/123/14
f 107/123/14 68/161/14 67/163/14 106/125/14
f 106/125/14 67/163/14 66/165/14 105/127/14
f 105/127/14 66/165/14 65/167/14 104/129/14
f 104/129/14 65/167/14 64/169/14 103/131/14
f 103/131/14 64/169/14 63/171/14 102/133/14
f 102/133/14 63/171/14 62/173/14 101/135/14
f 101/135/14 62/173/14 61/175/14 100/137/14
f 100/137/14 61/175/14 60/34/14 99/33/14
f 35/64/13 1/5/13 17/8/13 150/65/13
f 150/65/13 17/8/13 16/10/13 149/67/13
f 149/67/13 16/10/13 15/12/13 148/69/13
f 148/69/13 15/12/13 14/14/13 147/71/13
f 147/71/13 14/14/13 13/16/13 146/73/13
f 146/73/13 13/16/13 12/18/13 145/75/13
f 145/75/13 12/18/13 11/20/13 144/77/13
f 144/77/13 11/20/13 10/22/13 143/79/13
f 143/79/13 10/22/13 9/24/13 142/81/13
f 142/81/13 9/24/13 8/26/13 141/83/13
f 141/83/13 8/26/13 7/28/13 140/85/13
f 140/85/13 7/28/13 6/30/13 139/87/13
f 139/87/13 6/30/13 5/1/13 138/31/13
